<svg width="24" height="24" viewBox="0 0 24 24" fill="none" xmlns="http://www.w3.org/2000/svg">
<path d="M10.9919 14.8049C11.9971 14.1357 12.7602 13.1608 13.1685 12.0243C13.5767 10.8879 13.6084 9.65018 13.2588 8.49431C12.9093 7.33844 12.197 6.32575 11.2274 5.60599C10.2578 4.88623 9.08225 4.49762 7.87468 4.49762C6.66711 4.49762 5.49159 4.88623 4.52197 5.60599C3.55234 6.32575 2.84008 7.33844 2.49052 8.49431C2.14095 9.65018 2.17264 10.8879 2.5809 12.0243C2.98915 13.1608 3.7523 14.1357 4.75749 14.8049C2.9392 15.4751 1.38634 16.7152 0.330618 18.3402C0.275133 18.4227 0.236592 18.5154 0.217238 18.6128C0.197883 18.7103 0.1981 18.8107 0.217875 18.9081C0.237651 19.0055 0.276591 19.098 0.332431 19.1802C0.388272 19.2625 0.4599 19.3328 0.543151 19.3871C0.626403 19.4414 0.719617 19.4786 0.817375 19.4965C0.915134 19.5145 1.01549 19.5129 1.1126 19.4917C1.20972 19.4705 1.30165 19.4303 1.38307 19.3732C1.46449 19.3162 1.53376 19.2436 1.58687 19.1596C2.26786 18.1122 3.1997 17.2515 4.29778 16.6557C5.39585 16.0599 6.62537 15.7478 7.87468 15.7478C9.12399 15.7478 10.3535 16.0599 11.4516 16.6557C12.5497 17.2515 13.4815 18.1122 14.1625 19.1596C14.2725 19.3231 14.4424 19.4367 14.6355 19.4759C14.8286 19.5151 15.0294 19.4768 15.1945 19.3691C15.3595 19.2615 15.4756 19.0932 15.5176 18.9006C15.5595 18.7081 15.524 18.5068 15.4187 18.3402C14.363 16.7152 12.8102 15.4751 10.9919 14.8049ZM3.74968 10.1249C3.74968 9.30905 3.99161 8.51153 4.44487 7.83317C4.89813 7.15482 5.54237 6.62611 6.29611 6.3139C7.04986 6.00169 7.87926 5.92 8.67943 6.07916C9.4796 6.23833 10.2146 6.63119 10.7915 7.20809C11.3684 7.78498 11.7613 8.51998 11.9204 9.32015C12.0796 10.1203 11.9979 10.9497 11.6857 11.7035C11.3735 12.4572 10.8448 13.1015 10.1664 13.5547C9.48806 14.008 8.69053 14.2499 7.87468 14.2499C6.78104 14.2487 5.73255 13.8137 4.95924 13.0403C4.18592 12.267 3.75092 11.2185 3.74968 10.1249ZM23.4503 19.378C23.2837 19.4867 23.0808 19.5247 22.8862 19.4837C22.6915 19.4428 22.5212 19.3262 22.4125 19.1596C21.7323 18.1116 20.8006 17.2505 19.7023 16.6549C18.604 16.0594 17.3741 15.7482 16.1247 15.7499C15.9258 15.7499 15.735 15.6709 15.5944 15.5302C15.4537 15.3896 15.3747 15.1988 15.3747 14.9999C15.3747 14.801 15.4537 14.6102 15.5944 14.4696C15.735 14.3289 15.9258 14.2499 16.1247 14.2499C16.7322 14.2493 17.332 14.1146 17.8814 13.8553C18.4307 13.596 18.916 13.2186 19.3026 12.7501C19.6892 12.2815 19.9676 11.7333 20.1177 11.1447C20.2679 10.5561 20.2862 9.94156 20.1714 9.34504C20.0566 8.74852 19.8114 8.18474 19.4534 7.69396C19.0954 7.20318 18.6334 6.79753 18.1005 6.506C17.5675 6.21446 16.9768 6.04422 16.3704 6.00746C15.7641 5.9707 15.1571 6.06832 14.5928 6.29334C14.5008 6.33311 14.4018 6.35404 14.3015 6.35488C14.2013 6.35573 14.1019 6.33648 14.0093 6.29827C13.9166 6.26006 13.8326 6.20367 13.7621 6.13242C13.6916 6.06117 13.6361 5.97651 13.5988 5.88345C13.5616 5.79039 13.5434 5.69082 13.5453 5.59061C13.5473 5.4904 13.5692 5.39159 13.61 5.30001C13.6507 5.20844 13.7094 5.12596 13.7826 5.05746C13.8557 4.98895 13.9419 4.9358 14.0359 4.90115C15.3273 4.38614 16.7636 4.3676 18.0679 4.84913C19.3721 5.33065 20.4518 6.27811 21.0987 7.50873C21.7456 8.73935 21.9138 10.1659 21.5709 11.5133C21.228 12.8606 20.3983 14.0332 19.2419 14.8049C21.0602 15.4751 22.613 16.7152 23.6687 18.3402C23.7774 18.5068 23.8154 18.7097 23.7744 18.9044C23.7335 19.099 23.6169 19.2694 23.4503 19.378Z" fill="#FF0000"/>
</svg>
